<svg width="267" height="24" viewBox="0 0 267 24" fill="none" xmlns="http://www.w3.org/2000/svg">
<path d="M0 12.06C0 5.27333 5.40791 -0.000306532 12.7496 -0.000306532C16.2735 -0.115045 19.7088 1.08925 22.3512 3.36561L18.4948 7.88275C16.9472 6.46864 14.9042 5.68428 12.7834 5.68996C11.9559 5.71524 11.1419 5.90083 10.3887 6.23592C9.63553 6.57101 8.95827 7.04891 8.39636 7.64176C7.83445 8.23462 7.39913 8.93059 7.11576 9.68912C6.8324 10.4477 6.70664 11.2536 6.74583 12.06C6.70526 12.8997 6.84288 13.7384 7.15008 14.5238C7.45727 15.3092 7.92744 16.0243 8.53113 16.6244C9.13482 17.2244 9.85904 17.6964 10.6584 18.0109C11.4578 18.3254 12.3152 18.4755 13.1769 18.452C14.4966 18.5149 15.8063 18.1985 16.9433 17.542V14.7352H12.2774V10.0536H23.1607V20.4364C20.2704 22.7637 16.6327 24.0251 12.8845 23.9997C5.5091 23.9997 0 19.055 0 12.06Z" fill="#1D1D1B"/>
<path d="M26.8037 0.460449H45.8382V5.9424H33.291V9.39604H44.6464V14.4394H33.291V18.1014H46.0068V23.5833H26.8037V0.460449Z" fill="#1D1D1B"/>
<path d="M48.5361 12.0603C48.5067 10.4602 48.8099 8.87097 49.4274 7.38828C50.0449 5.90559 50.9639 4.56021 52.129 3.43325C53.2941 2.30628 54.6812 1.42109 56.2066 0.831029C57.732 0.24097 59.3642 -0.0417277 61.0047 -1.99611e-05C62.9504 -0.0804266 64.885 0.325619 66.6245 1.17955C68.364 2.03347 69.8508 3.30692 70.9435 4.87892L66.1428 8.50798C65.5613 7.68507 64.784 7.01183 63.8775 6.54592C62.9709 6.08002 61.962 5.83532 60.9372 5.83278C57.5643 5.83278 55.3157 8.57376 55.3157 12.0055C55.3157 15.4372 57.643 18.1672 60.9372 18.1672C62.006 18.1718 63.0591 17.9166 64.0014 17.4246C64.9436 16.9327 65.7453 16.2195 66.3339 15.3495L71.2696 18.7812C70.1284 20.4724 68.554 21.8436 66.7023 22.759C64.8506 23.6744 62.7858 24.1022 60.7124 24C59.1022 24.0193 57.5044 23.7232 56.0137 23.1292C54.523 22.5352 53.1698 21.6553 52.0343 20.5419C50.8988 19.4284 50.004 18.104 49.4031 16.647C48.8022 15.1901 48.5074 13.6304 48.5361 12.0603V12.0603Z" fill="#1D1D1B"/>
<path d="M74.0132 0.460449H80.5679V9.86748L88.7191 0.460449H96.4993L87.5048 10.3828L96.7691 23.5395H88.899L82.9739 14.9657L80.5679 17.5422V23.5066H74.0132V0.460449Z" fill="#1D1D1B"/>
<path d="M96.0156 12.0602C96.1141 8.82814 97.4999 5.76059 99.8791 3.50834C102.258 1.25608 105.444 -0.00366211 108.76 -0.00366211C112.075 -0.00366211 115.261 1.25608 117.64 3.50834C120.019 5.76059 121.405 8.82814 121.504 12.0602C121.405 15.2924 120.019 18.3599 117.64 20.6122C115.261 22.8644 112.075 24.1242 108.76 24.1242C105.444 24.1242 102.258 22.8644 99.8791 20.6122C97.4999 18.3599 96.1141 15.2924 96.0156 12.0602V12.0602ZM114.814 12.0602C114.853 11.2531 114.725 10.4465 114.438 9.68869C114.15 8.9309 113.708 8.23749 113.139 7.64995C112.571 7.06242 111.886 6.59283 111.127 6.26929C110.367 5.94575 109.549 5.7749 108.72 5.76696C107.897 5.77569 107.084 5.94797 106.331 6.27328C105.578 6.5986 104.901 7.07011 104.342 7.65906C103.782 8.248 103.351 8.94201 103.075 9.69871C102.8 10.4554 102.685 11.2589 102.739 12.0602C102.706 12.8591 102.837 13.6563 103.125 14.4049C103.413 15.1535 103.852 15.8382 104.416 16.4186C104.98 16.9991 105.657 17.4636 106.408 17.7846C107.159 18.1056 107.968 18.2767 108.788 18.2877C109.609 18.2844 110.421 18.1184 111.174 17.7998C111.928 17.4811 112.607 17.0165 113.17 16.4341C113.734 15.8517 114.17 15.1637 114.453 14.4118C114.735 13.6599 114.858 12.8599 114.814 12.0602V12.0602Z" fill="#1D1D1B"/>
<path d="M131.903 14.1764V23.2545H131.038V1.53497H136.356C138.397 1.39533 140.424 1.95359 142.09 3.11377C142.764 3.70369 143.29 4.43622 143.63 5.25528C143.969 6.07435 144.111 6.95822 144.046 7.83922C144.052 8.71582 143.864 9.58336 143.495 10.3828C143.135 11.1573 142.601 11.843 141.932 12.3892C141.214 12.9721 140.39 13.4184 139.504 13.7049C138.489 14.0321 137.425 14.1914 136.356 14.1764H131.903ZM131.903 13.4747H136.401C137.363 13.4875 138.32 13.343 139.234 13.0471C140.019 12.7935 140.745 12.3911 141.37 11.863C141.95 11.357 142.413 10.7367 142.729 10.043C143.045 9.34936 143.207 8.5982 143.203 7.83922C143.256 7.06203 143.131 6.28302 142.837 5.55864C142.544 4.83426 142.089 4.18264 141.505 3.651C140.026 2.57285 138.196 2.0547 136.356 2.1928H131.858L131.903 13.4747Z" fill="#1D1D1B"/>
<path d="M149.858 13.0362V23.2545H148.981V1.53504H154.356C156.297 1.40618 158.228 1.8906 159.865 2.91649C160.505 3.40744 161.012 4.04396 161.341 4.77031C161.67 5.49665 161.812 6.29066 161.754 7.08278C161.763 7.88685 161.594 8.6834 161.259 9.41809C160.939 10.1094 160.471 10.7262 159.887 11.2271C159.254 11.7635 158.521 12.1766 157.729 12.4441C156.827 12.7551 155.884 12.9361 154.929 12.9814C155.139 13.1067 155.325 13.2662 155.48 13.4528L163.766 23.2545H163.024C162.92 23.2728 162.813 23.2728 162.709 23.2545C162.6 23.2115 162.509 23.1343 162.451 23.0353L154.58 13.6611C154.506 13.56 154.419 13.468 154.322 13.387C154.24 13.2935 154.141 13.2155 154.03 13.1568C153.905 13.1009 153.772 13.064 153.636 13.0471H153.074L149.858 13.0362ZM149.858 12.3783H154.108C155.062 12.3892 156.012 12.2674 156.93 12.0165C157.71 11.7942 158.437 11.4214 159.066 10.9201C159.642 10.4781 160.104 9.91125 160.416 9.26459C160.739 8.57721 160.9 7.82795 160.888 7.07181C160.944 6.36616 160.819 5.65794 160.525 5.011C160.231 4.36406 159.776 3.79874 159.201 3.36601C157.751 2.49168 156.057 2.08149 154.356 2.19287H149.858V12.3783Z" fill="#1D1D1B"/>
<path d="M181.013 1.53491V2.26949H168.77V11.8848H179.113V12.5975H168.77V22.5308H181.081V23.2544H167.904V1.53491H181.013Z" fill="#1D1D1B"/>
<path d="M197.158 18.3097C197.206 18.2177 197.248 18.1224 197.282 18.0247C197.282 17.926 197.372 17.8273 197.428 17.7287L206.805 1.74327C206.842 1.67276 206.901 1.6153 206.973 1.57881C207.043 1.56016 207.117 1.56016 207.187 1.57881H207.704V23.2545H206.951V3.15762C206.945 3.07731 206.945 2.99672 206.951 2.91641L197.608 18.8908C197.575 18.9647 197.522 19.0283 197.455 19.0747C197.387 19.1211 197.308 19.1485 197.226 19.154H197.068C196.984 19.1505 196.902 19.124 196.833 19.0775C196.763 19.0309 196.708 18.9663 196.675 18.8908L187.039 2.88352C187.045 2.96747 187.045 3.05174 187.039 3.13569C187.045 3.21966 187.045 3.30388 187.039 3.38786V23.2545H186.275V1.53496H186.803C186.873 1.51732 186.947 1.51732 187.017 1.53496C187.089 1.57144 187.148 1.6289 187.186 1.69942L196.843 17.6958L197.158 18.3097Z" fill="#1D1D1B"/>
<path d="M215.642 23.2544H214.742V1.53491H215.608L215.642 23.2544Z" fill="#1D1D1B"/>
<path d="M230.629 22.761C231.687 22.7802 232.737 22.5784 233.709 22.169C234.569 21.7861 235.336 21.2292 235.958 20.5354C236.596 19.8237 237.085 18.9967 237.397 18.1014C237.731 17.1336 237.898 16.1184 237.892 15.0973V1.53491H238.78V15.0973C238.788 16.2179 238.594 17.3312 238.206 18.3864C237.853 19.3791 237.298 20.2925 236.576 21.0726C235.85 21.8385 234.97 22.4505 233.99 22.8707C231.8 23.748 229.344 23.748 227.155 22.8707C226.174 22.4533 225.293 21.8409 224.569 21.0726C223.85 20.2897 223.297 19.3771 222.938 18.3864C222.551 17.3312 222.357 16.2179 222.365 15.0973V1.53491H223.242V15.0753C223.236 16.0964 223.403 17.1115 223.737 18.0795C224.053 18.9795 224.541 19.8129 225.176 20.5354C225.8 21.2275 226.566 21.7841 227.424 22.169C228.435 22.5918 229.529 22.7939 230.629 22.761V22.761Z" fill="#1D1D1B"/>
<path d="M256.454 18.3097C256.454 18.222 256.533 18.1233 256.578 18.0247C256.623 17.926 256.668 17.8273 256.724 17.7286L266.101 1.74325C266.138 1.67274 266.197 1.61528 266.269 1.57879C266.339 1.56014 266.413 1.56014 266.483 1.57879H267V23.2544H266.247V3.1576C266.241 3.07729 266.241 2.9967 266.247 2.91639L256.904 18.8908C256.87 18.9639 256.817 19.0269 256.749 19.0732C256.682 19.1195 256.604 19.1473 256.522 19.1539H256.342C256.257 19.1505 256.176 19.124 256.106 19.0775C256.037 19.0309 255.982 18.9662 255.948 18.8908L246.313 2.8835C246.319 2.96745 246.319 3.05172 246.313 3.13567C246.313 3.22338 246.313 3.31109 246.313 3.38784V23.2544H245.548V1.53494H246.077C246.147 1.51863 246.22 1.51863 246.29 1.53494C246.362 1.56922 246.418 1.6277 246.448 1.6994L256.117 17.6957L256.454 18.3097Z" fill="#1D1D1B"/>
</svg>
